<?xml version="1.0" encoding="utf-8"?>
<!-- Generator: Adobe Illustrator 21.0.0, SVG Export Plug-In . SVG Version: 6.00 Build 0)  -->
<svg version="1.1" id="圖層_1" xmlns="http://www.w3.org/2000/svg" xmlns:xlink="http://www.w3.org/1999/xlink" x="0px" y="0px"
	 viewBox="0 0 100 100" enable-background="new 0 0 100 100" xml:space="preserve">
<path fill="#009245" d="M56.6,35.3c0.2-7.5,4.6-14.7,11.2-18.1c1.1,1,1.8,2.5,2.1,4c1.4,6.1-1.1,12.9-6.1,16.6
	c-1,0.8-2.2,1.4-2.9,2.5c-0.7,1.1-0.8,2.7,0.3,3.5C58.1,42.2,56.5,38.7,56.6,35.3z"/>
<g>
	<path fill="#009245" d="M70,27.6c-2.9,2.5-5.3,5.4-7.1,8.8c-0.5,0.9-0.9,1.9-1.2,3c0.6-0.6,1.4-1.1,2.1-1.6
		C67.1,35.4,69.3,31.6,70,27.6z"/>
	<path fill="#009245" d="M89.3,20.1c-6,0.2-12,2.2-16.9,5.7c-0.3,5.3-3,10.6-7.3,13.7c-0.2,0.2-0.4,0.3-0.7,0.5
		c-0.7,0.5-1.4,1-1.7,1.5c-0.2,0.3-0.2,0.6-0.2,0.7c0,0,0-0.1-0.1-0.1L61.3,44c0.1,2.3,0.8,4.6,2.2,6.5c-0.9-1.7,0.3-3.8,1.9-4.7
		s3.6-1.1,5.4-1.4c8.9-1.6,16.6-8.9,18.7-17.7C89.9,24.5,90.1,22.1,89.3,20.1z"/>
</g>
<path fill="#CCB710" d="M87.6,53.4c-0.9,3-3.1,5.2-5.8,5.4C77.6,74.2,62,85.6,43.3,85.6c-7.9,0-15.3-2.1-21.5-5.6
	c6.7,6.9,16.8,11.4,28.2,11.4c17.2,0,31.7-10.1,35.5-23.8c3.2-0.2,5.8-3.4,5.8-7.4C91.2,57.1,89.7,54.5,87.6,53.4z"/>
<path fill="#FCEE21" d="M81.8,58.8c2.7-0.2,4.9-2.4,5.8-5.4c-0.7-0.4-1.4-0.6-2.2-0.6C81.5,39.2,67.1,29.2,50,29.2
	c-17.5,0-32.1,10.4-35.6,24.4c-2.5,0.7-4.4,3.3-4.4,6.5c0,3.2,1.8,5.8,4.3,6.5c1.2,5,3.8,9.5,7.5,13.3c6.2,3.6,13.6,5.6,21.5,5.6
	C62,85.6,77.6,74.2,81.8,58.8z"/>
<path fill="#FFFFFF" stroke="#FFFFFF" stroke-width="4.1243" stroke-linecap="round" stroke-miterlimit="10" d="M40.8,36.5
	c-3.6-0.7-8.8,2.5-10,4.9"/>
<ellipse transform="matrix(5.819033e-02 -0.9983 0.9983 5.819033e-02 -22.2238 71.0604)" fill="#FFFFFF" cx="26.5" cy="47.3" rx="2.5" ry="2.5"/>
</svg>
